<svg width="37" height="37" viewBox="0 0 37 37" fill="none" xmlns="http://www.w3.org/2000/svg">
<g id="&#240;&#159;&#166;&#134; icon &#34;facebook icon&#34;">
<path id="Vector" d="M36.9194 18.6136C36.9194 8.41582 28.6506 0.153948 18.4597 0.153948C8.26187 0.153948 0 8.41582 0 18.6136C0 27.825 6.74817 35.4627 15.5754 36.8461V23.9508H10.8878V18.6148H15.5754V14.5456C15.5754 9.92028 18.327 7.36592 22.5451 7.36592C24.5652 7.36592 26.68 7.72588 26.68 7.72588V12.2681H24.3483C22.0593 12.2681 21.344 13.693 21.344 15.1525V18.6136H26.4631L25.6405 23.9496H21.344V36.8449C30.1643 35.4616 36.9194 27.8239 36.9194 18.6125V18.6136Z" fill="white"/>
</g>
</svg>
